<svg width="32" height="32" viewBox="0 0 32 32" fill="none" xmlns="http://www.w3.org/2000/svg">
    <rect width="32" height="32" rx="4" fill="transparent"/>
    <path d="M17.746 26.934V30H14.872V26.934C12.348 26.734 10.254 25.892 8.59 24.408L10.42 21.642C11.242 22.324 12.09 22.834 12.964 23.172C13.838 23.51 14.75 23.68 15.7 23.68C16.764 23.68 17.568 23.464 18.112 23.032C18.656 22.6 18.928 22.014 18.928 21.274C18.928 20.746 18.756 20.296 18.412 19.924C18.068 19.552 17.632 19.248 17.104 19.012C16.576 18.776 15.856 18.494 14.944 18.166C13.68 17.724 12.65 17.29 11.854 16.864C11.058 16.438 10.372 15.83 9.796 15.04C9.22 14.25 8.932 13.24 8.932 12.01C8.932 10.474 9.452 9.172 10.492 8.104C11.532 7.036 12.992 6.39 14.872 6.166V3H17.746V6.184C19.866 6.444 21.624 7.188 23.02 8.416L21.262 11.11C20.6 10.564 19.874 10.138 19.084 9.832C18.294 9.526 17.526 9.374 16.78 9.374C15.868 9.374 15.164 9.58 14.668 9.992C14.172 10.404 13.924 10.946 13.924 11.618C13.924 12.1 14.082 12.512 14.398 12.854C14.714 13.196 15.124 13.478 15.628 13.7C16.132 13.922 16.828 14.188 17.716 14.498C19.004 14.958 20.058 15.414 20.878 15.866C21.698 16.318 22.408 16.96 23.008 17.792C23.608 18.624 23.908 19.688 23.908 20.984C23.908 22.606 23.374 23.948 22.306 25.01C21.238 26.072 19.718 26.714 17.746 26.934Z" fill="#000000"/>
</svg>
